<svg xmlns="http://www.w3.org/2000/svg" viewBox="0 0 55 64"><path d="M55 26.5v23.8c0 1.2-.4 2.2-1.3 3.2-.9.9-1.9 1.5-3.2 1.6-3.5.4-6.8 1.3-10.1 2.6S34 60.8 31 62.9a6.06 6.06 0 0 1-3.5 1.1 6.06 6.06 0 0 1-3.5-1.1c-3-2.1-6.1-3.9-9.4-5.2s-6.7-2.2-10.1-2.6c-1.3-.2-2.3-.7-3.2-1.6-.9-1-1.3-2-1.3-3.2V26.5c0-1.3.5-2.4 1.4-3.2s2-1.2 3.1-1c4 .6 8 2 11.9 4 3.9 2.1 7.6 4.8 11.1 8.1 3.5-3.3 7.2-6 11.1-8.1s7.9-3.4 11.9-4c1.2-.2 2.2.1 3.1 1 .9.8 1.4 1.9 1.4 3.2z" fill="#004d40"/><path d="M39.5 11.8c0 3.3-1.1 6.1-3.4 8.4s-5.1 3.4-8.4 3.4-6.1-1.1-8.4-3.4-3.4-5.1-3.4-8.4 1.1-6.1 3.4-8.4S24.4 0 27.7 0s6.1 1.1 8.4 3.4 3.4 5.1 3.4 8.4z" fill="#e65100"/></svg>